<svg width="24" height="24" viewBox="0 0 24 24" fill="none" xmlns="http://www.w3.org/2000/svg">
<path d="M21.0033 3.00003L13.1992 8.79622L14.6424 5.37655L21.0033 3.00003Z" fill="#E2761B" stroke="#E2761B" stroke-width="0.0772128" stroke-linecap="round" stroke-linejoin="round"/>
<path d="M2.9873 3.00003L10.7286 8.85112L9.35605 5.37655L2.9873 3.00003Z" fill="#E4761B" stroke="#E4761B" stroke-width="0.0772128" stroke-linecap="round" stroke-linejoin="round"/>
<path d="M18.1957 16.4356L16.1172 19.62L20.5643 20.8435L21.8428 16.5062L18.1957 16.4356Z" fill="#E4761B" stroke="#E4761B" stroke-width="0.0772128" stroke-linecap="round" stroke-linejoin="round"/>
<path d="M2.16406 16.5062L3.43467 20.8435L7.88182 19.62L5.80335 16.4356L2.16406 16.5062Z" fill="#E4761B" stroke="#E4761B" stroke-width="0.0772128" stroke-linecap="round" stroke-linejoin="round"/>
<path d="M7.62986 11.0551L6.39062 12.9296L10.8064 13.1257L10.6495 8.38049L7.62986 11.0551Z" fill="#E4761B" stroke="#E4761B" stroke-width="0.0772128" stroke-linecap="round" stroke-linejoin="round"/>
<path d="M16.3601 11.0551L13.3012 8.32562L13.1992 13.1257L17.6071 12.9296L16.3601 11.0551Z" fill="#E4761B" stroke="#E4761B" stroke-width="0.0772128" stroke-linecap="round" stroke-linejoin="round"/>
<path d="M7.88184 19.6199L10.5329 18.3258L8.24263 16.5375L7.88184 19.6199Z" fill="#E4761B" stroke="#E4761B" stroke-width="0.0772128" stroke-linecap="round" stroke-linejoin="round"/>
<path d="M13.459 18.3258L16.1179 19.6199L15.7492 16.5375L13.459 18.3258Z" fill="#E4761B" stroke="#E4761B" stroke-width="0.0772128" stroke-linecap="round" stroke-linejoin="round"/>
<path d="M16.1169 19.6199L13.458 18.3258L13.6698 20.0592L13.6462 20.7886L16.1169 19.6199Z" fill="#D7C1B3" stroke="#D7C1B3" stroke-width="0.0772128" stroke-linecap="round" stroke-linejoin="round"/>
<path d="M7.88086 19.6199L10.3515 20.7886L10.3358 20.0592L10.5319 18.3258L7.88086 19.6199Z" fill="#D7C1B3" stroke="#D7C1B3" stroke-width="0.0772128" stroke-linecap="round" stroke-linejoin="round"/>
<path d="M10.3905 15.3924L8.17871 14.7414L9.73952 14.0276L10.3905 15.3924Z" fill="#233447" stroke="#233447" stroke-width="0.0772128" stroke-linecap="round" stroke-linejoin="round"/>
<path d="M13.6006 15.3924L14.2516 14.0276L15.8202 14.7414L13.6006 15.3924Z" fill="#233447" stroke="#233447" stroke-width="0.0772128" stroke-linecap="round" stroke-linejoin="round"/>
<path d="M7.88121 19.62L8.25768 16.4356L5.80273 16.5062L7.88121 19.62Z" fill="#CD6116" stroke="#CD6116" stroke-width="0.0772128" stroke-linecap="round" stroke-linejoin="round"/>
<path d="M15.7393 16.4356L16.1157 19.62L18.1942 16.5062L15.7393 16.4356Z" fill="#CD6116" stroke="#CD6116" stroke-width="0.0772128" stroke-linecap="round" stroke-linejoin="round"/>
<path d="M17.6071 12.9296L13.1992 13.1257L13.6071 15.3924L14.2581 14.0277L15.8267 14.7414L17.6071 12.9296Z" fill="#CD6116" stroke="#CD6116" stroke-width="0.0772128" stroke-linecap="round" stroke-linejoin="round"/>
<path d="M8.17889 14.7414L9.74755 14.0277L10.3907 15.3924L10.8064 13.1257L6.39062 12.9296L8.17889 14.7414Z" fill="#CD6116" stroke="#CD6116" stroke-width="0.0772128" stroke-linecap="round" stroke-linejoin="round"/>
<path d="M6.3916 12.9296L8.24262 16.5375L8.17987 14.7414L6.3916 12.9296Z" fill="#E4751F" stroke="#E4751F" stroke-width="0.0772128" stroke-linecap="round" stroke-linejoin="round"/>
<path d="M15.8265 14.7414L15.748 16.5375L17.6069 12.9296L15.8265 14.7414Z" fill="#E4751F" stroke="#E4751F" stroke-width="0.0772128" stroke-linecap="round" stroke-linejoin="round"/>
<path d="M10.8083 13.1257L10.3926 15.3924L10.9102 18.067L11.0279 14.5453L10.8083 13.1257Z" fill="#E4751F" stroke="#E4751F" stroke-width="0.0772128" stroke-linecap="round" stroke-linejoin="round"/>
<path d="M13.2001 13.1257L12.9883 14.5375L13.0824 18.067L13.6079 15.3924L13.2001 13.1257Z" fill="#E4751F" stroke="#E4751F" stroke-width="0.0772128" stroke-linecap="round" stroke-linejoin="round"/>
<path d="M13.6075 15.3924L13.082 18.067L13.4585 18.3258L15.7487 16.5375L15.8272 14.7414L13.6075 15.3924Z" fill="#F6851B" stroke="#F6851B" stroke-width="0.0772128" stroke-linecap="round" stroke-linejoin="round"/>
<path d="M8.17871 14.7414L8.24146 16.5375L10.5317 18.3258L10.9082 18.067L10.3905 15.3924L8.17871 14.7414Z" fill="#F6851B" stroke="#F6851B" stroke-width="0.0772128" stroke-linecap="round" stroke-linejoin="round"/>
<path d="M13.6467 20.7886L13.6702 20.0592L13.4741 19.8866H10.5172L10.3368 20.0592L10.3525 20.7886L7.88184 19.6199L8.7446 20.3258L10.4937 21.5415H13.4976L15.2545 20.3258L16.1173 19.6199L13.6467 20.7886Z" fill="#C0AD9E" stroke="#C0AD9E" stroke-width="0.0772128" stroke-linecap="round" stroke-linejoin="round"/>
<path d="M13.4585 18.3258L13.0821 18.067H10.9095L10.533 18.3258L10.3369 20.0591L10.5173 19.8866H13.4742L13.6703 20.0591L13.4585 18.3258Z" fill="#161616" stroke="#161616" stroke-width="0.0772128" stroke-linecap="round" stroke-linejoin="round"/>
<path d="M21.3336 9.17267L22.0003 5.97261L21.0042 3L13.459 8.60011L16.361 11.0551L20.463 12.2551L21.3729 11.1962L20.9807 10.9139L21.6082 10.3413L21.1219 9.96484L21.7493 9.4864L21.3336 9.17267Z" fill="#763D16" stroke="#763D16" stroke-width="0.0772128" stroke-linecap="round" stroke-linejoin="round"/>
<path d="M2 5.97261L2.66668 9.17267L2.24314 9.4864L2.8706 9.96484L2.39216 10.3413L3.01963 10.9139L2.62746 11.1962L3.52944 12.2551L7.63148 11.0551L10.5335 8.60011L2.98825 3L2 5.97261Z" fill="#763D16" stroke="#763D16" stroke-width="0.0772128" stroke-linecap="round" stroke-linejoin="round"/>
<path d="M20.4619 12.2551L16.3598 11.0551L17.6069 12.9296L15.748 16.5375L18.1952 16.5061H21.8423L20.4619 12.2551Z" fill="#F6851B" stroke="#F6851B" stroke-width="0.0772128" stroke-linecap="round" stroke-linejoin="round"/>
<path d="M7.63083 11.0551L3.52879 12.2551L2.16406 16.5061H5.80335L8.24261 16.5375L6.39159 12.9296L7.63083 11.0551Z" fill="#F6851B" stroke="#F6851B" stroke-width="0.0772128" stroke-linecap="round" stroke-linejoin="round"/>
<path d="M13.1997 13.1257L13.4585 8.60012L14.6507 5.37653H9.35645L10.5329 8.60012L10.8075 13.1257L10.9016 14.5532L10.9094 18.067H13.082L13.0977 14.5532L13.1997 13.1257Z" fill="#F6851B" stroke="#F6851B" stroke-width="0.0772128" stroke-linecap="round" stroke-linejoin="round"/>
</svg>
